--------------------------------------------------------------------------------
Configs loaded in 0.0043 seconds
--------------------------------------------------------------------------------
--------------------------------------------------------------------------------
Datasets (train and test) loaded in 1.0053 seconds
--------------------------------------------------------------------------------
--------------------------------------------------------------------------------
Imbalance class sampling completed in 0.6455 seconds
--------------------------------------------------------------------------------
--------------------------------------------------------------------------------
Dimensionality reduction completed in 19.8089 seconds
--------------------------------------------------------------------------------
--------------------------------------------------------------------------------
Train data original shape: (1444, 5000)
Number of total samples: 1444
Balanced Class distribution after SMOTETomek : Counter({0: 722, 1: 722})
Sparsity : 0.013163704986149584
--------------------------------------------------------------------------------
Train data shape after feature selection: (1444, 5000)
--------------------------------------------------------------------------------
Test set after feature selection 
--------------------------------------------------------------------------------
X shape: (350, 5000)
Number of total samples: 350
--------------------------------------------------------------------------------
--------------------------------------------------------------------------------
Cross validation loop completed in 5.8019 seconds
--------------------------------------------------------------------------------
Results
--------------------------------------------------------------------------------
           model  accuracy  f1_score  precision    recall
1  MultinomialNB  0.970450  0.970432   0.971479  0.970450
0     Perceptron  0.939294  0.939255   0.940295  0.939285
2  Decision Tree  0.902604  0.902276   0.907472  0.902605
--------------------------------------------------------------------------------
Best model params
--------------------------------------------------------------------------------
alpha: 0.7
class_prior: [0.1, 0.9]
fit_prior: True
--------------------------------------------------------------------------------
--------------------------------------------------------------------------------
Test set prediction generation completed in 0.1463 seconds
--------------------------------------------------------------------------------
Predicted class distribution of test set: Counter({0: 327, 1: 23})
--------------------------------------------------------------------------------
Test set results
--------------------------------------------------------------------------------
[0 0 0 0 0 0 0 0 0 0 0 0 0 0 0 0 0 0 0 0 0 0 0 0 0 1 0 0 0 0 0 0 0 0 0 0 0
 0 0 0 0 0 0 0 0 0 0 0 0 0 0 0 0 0 0 1 0 0 0 0 0 1 0 0 0 0 1 0 0 0 0 0 0 0
 0 0 0 0 0 0 0 0 1 1 0 1 0 0 0 0 0 0 0 0 0 0 0 0 1 1 0 0 0 0 0 0 0 0 0 0 0
 0 0 0 1 0 0 0 1 0 0 0 0 0 0 0 0 0 0 0 0 1 0 0 0 0 0 0 0 0 0 0 0 0 0 0 1 0
 0 0 0 0 0 0 0 0 0 0 0 0 0 0 1 0 0 0 0 0 0 0 0 0 0 0 0 0 0 0 0 0 0 0 0 0 0
 0 0 0 0 0 0 0 0 0 0 0 0 0 0 0 0 0 0 0 0 0 0 0 0 0 0 0 0 0 0 0 0 0 0 0 0 0
 1 0 0 1 0 0 0 0 0 0 0 0 0 0 0 0 0 0 0 0 0 0 0 0 0 1 0 0 0 0 0 0 1 0 0 0 0
 0 0 0 0 0 0 0 0 0 0 0 0 0 0 0 0 0 0 0 0 0 0 1 0 0 0 0 0 0 0 0 0 0 1 0 0 0
 0 0 0 0 0 0 0 0 0 0 0 0 0 0 0 0 0 0 0 1 0 0 0 0 0 0 1 0 0 0 0 0 0 0 1 0 0
 0 0 0 0 0 0 0 0 0 0 0 0 0 0 0 0 0]
--------------------------------------------------------------------------------
